<?xml version="1.0" encoding="utf-8"?>
<!-- Generator: Adobe Illustrator 17.0.0, SVG Export Plug-In . SVG Version: 6.00 Build 0)  -->
<!DOCTYPE svg PUBLIC "-//W3C//DTD SVG 1.1//EN" "http://www.w3.org/Graphics/SVG/1.1/DTD/svg11.dtd">
<svg version="1.1" xmlns="http://www.w3.org/2000/svg" xmlns:xlink="http://www.w3.org/1999/xlink" x="0px" y="0px" width="650.5px"
	 height="140px" viewBox="0 0 650.5 140" enable-background="new 0 0 650.5 140" xml:space="preserve">
<g id="Layer_1">
	<path fill="#DCDCDC" d="M103.026,88.515L73.547,36.838c-0.185-0.325-0.718-0.325-0.903,0L43.164,88.515
		c-0.092,0.162-0.091,0.359,0.002,0.519c0.093,0.161,0.264,0.259,0.45,0.259h58.96c0.185,0,0.357-0.099,0.45-0.259
		C103.118,88.874,103.118,88.676,103.026,88.515z M72.576,71.649L45.01,87.378l27.566-48.323V71.649z M73.616,39.059l27.564,48.319
		L73.616,71.65V39.059z M45.577,88.253l27.518-15.702l27.518,15.702H73.095H45.577z"/>
	<g>
		<path fill="#C8C8C8" d="M65.15,109.748h-1.401l3.046-4.416l-2.856-4.191h1.454l2.171,3.293l2.154-3.293h1.384l-2.854,4.191
			l2.994,4.416H69.8l-2.293-3.539L65.15,109.748z"/>
		<path fill="#C8C8C8" d="M73.191,106.971c0.026,0.488,0.137,0.885,0.333,1.189c0.373,0.57,1.029,0.855,1.97,0.855
			c0.421,0,0.805-0.062,1.151-0.188c0.67-0.242,1.005-0.676,1.005-1.301c0-0.469-0.142-0.803-0.426-1.002
			c-0.288-0.195-0.738-0.365-1.351-0.51l-1.129-0.264c-0.738-0.172-1.26-0.361-1.566-0.568c-0.53-0.359-0.795-0.896-0.795-1.611
			c0-0.773,0.26-1.408,0.781-1.904c0.521-0.496,1.258-0.744,2.212-0.744c0.878,0,1.624,0.218,2.238,0.653s0.921,1.132,0.921,2.089
			h-1.096c-0.056-0.461-0.176-0.814-0.359-1.061c-0.341-0.449-0.919-0.674-1.736-0.674c-0.659,0-1.133,0.145-1.421,0.434
			c-0.289,0.289-0.433,0.625-0.433,1.008c0,0.422,0.17,0.73,0.511,0.926c0.224,0.125,0.729,0.281,1.516,0.469l1.169,0.275
			c0.564,0.133,0.999,0.314,1.306,0.545c0.53,0.402,0.795,0.986,0.795,1.752c0,0.953-0.338,1.635-1.014,2.045S76.311,110,75.415,110
			c-1.044,0-1.861-0.273-2.451-0.82c-0.591-0.543-0.88-1.279-0.869-2.209H73.191z"/>
	</g>
	<path fill="#DCDCDC" d="M196.847,45.968l-28.498-16.833c-0.002-0.001-0.005-0.001-0.007-0.002c-0.001,0-0.001-0.001-0.002-0.002
		c-0.024-0.013-0.051-0.011-0.076-0.02c-0.056-0.021-0.112-0.045-0.171-0.045c-0.059,0-0.114,0.024-0.171,0.044
		c-0.025,0.009-0.053,0.007-0.077,0.02c-0.001,0-0.001,0.001-0.002,0.002c-0.002,0.001-0.005,0.001-0.007,0.002l-28.498,16.833
		c-0.152,0.09-0.246,0.254-0.246,0.431v0.422v32.244v0.423c0,0.177,0.093,0.341,0.246,0.431l28.498,16.833
		c0.002,0.001,0.004,0.001,0.006,0.002c0.001,0.001,0.001,0.002,0.002,0.002c0.058,0.033,0.123,0.041,0.187,0.049
		c0.02,0.003,0.038,0.016,0.059,0.016c0,0,0.001,0,0.001,0s0.001,0,0.001,0c0.02,0,0.039-0.013,0.059-0.016
		c0.064-0.008,0.129-0.016,0.187-0.049c0.001-0.001,0.001-0.002,0.002-0.002c0.002-0.001,0.004-0.001,0.006-0.002l28.498-16.833
		c0.152-0.09,0.246-0.254,0.246-0.431v-0.423V46.821v-0.422C197.093,46.222,197,46.059,196.847,45.968z M169.744,62.944
		l26.349-15.255v30.51L169.744,62.944z M168.595,30.442l27.369,16.166l-27.218,15.758l-0.152-0.088L168.595,30.442z M167.594,62.278
		l-0.152,0.088l-27.218-15.758l27.369-16.166L167.594,62.278z M140.095,47.688l26.349,15.255l-26.349,15.255V47.688z
		 M167.593,95.445l-27.369-16.166l27.218-15.758l0.152,0.088L167.593,95.445z M168.594,63.609l0.152-0.088l27.218,15.758
		l-27.369,16.166L168.594,63.609z"/>
	<g>
		<path fill="#C8C8C8" d="M165.768,106.971c0.026,0.488,0.137,0.885,0.333,1.189c0.373,0.57,1.029,0.855,1.97,0.855
			c0.421,0,0.805-0.062,1.151-0.188c0.67-0.242,1.005-0.676,1.005-1.301c0-0.469-0.142-0.803-0.426-1.002
			c-0.288-0.195-0.738-0.365-1.351-0.51l-1.129-0.264c-0.738-0.172-1.26-0.361-1.566-0.568c-0.53-0.359-0.795-0.896-0.795-1.611
			c0-0.773,0.26-1.408,0.781-1.904c0.521-0.496,1.258-0.744,2.212-0.744c0.878,0,1.624,0.218,2.238,0.653s0.921,1.132,0.921,2.089
			h-1.096c-0.056-0.461-0.176-0.814-0.359-1.061c-0.341-0.449-0.919-0.674-1.736-0.674c-0.659,0-1.133,0.145-1.421,0.434
			c-0.289,0.289-0.433,0.625-0.433,1.008c0,0.422,0.17,0.73,0.511,0.926c0.224,0.125,0.729,0.281,1.516,0.469l1.169,0.275
			c0.564,0.133,0.999,0.314,1.306,0.545c0.53,0.402,0.795,0.986,0.795,1.752c0,0.953-0.338,1.635-1.014,2.045
			S168.887,110,167.992,110c-1.044,0-1.861-0.273-2.451-0.82c-0.591-0.543-0.88-1.279-0.869-2.209H165.768z"/>
	</g>
	<path fill="#DCDCDC" d="M291.022,45.944c0-0.181-0.098-0.348-0.255-0.436l-28.499-16c-0.151-0.085-0.338-0.085-0.489,0l-28.499,16
		c-0.158,0.088-0.255,0.255-0.255,0.436V79.61c0,0,0,0,0,0.001c0,0.079,0.024,0.157,0.061,0.229
		c0.003,0.007,0.002,0.015,0.006,0.021v0c0.045,0.078,0.109,0.14,0.184,0.183l28.496,16.332c0.001,0,0.001,0.001,0.002,0.001
		l0.001,0.001c0.077,0.044,0.163,0.066,0.249,0.066s0.171-0.022,0.249-0.066l0.001-0.001c0.001,0,0.001-0.001,0.002-0.001
		l28.496-16.332c0.075-0.043,0.139-0.105,0.184-0.183v0c0.004-0.006,0.002-0.015,0.006-0.021c0.037-0.072,0.061-0.15,0.061-0.229
		c0,0,0,0,0-0.001V45.944z M234.023,48.154l8.487,14.79l-8.487,14.79V48.154z M271.105,79.11h-18.166l-9.276-16.166l9.276-16.166
		h18.166l9.276,16.166L271.105,79.11z M280.958,63.949l8.7,15.161h-17.4L280.958,63.949z M270.532,80.11l-8.509,14.829
		l-8.509-14.829H270.532z M251.786,79.11h-17.4l8.7-15.161L251.786,79.11z M243.087,61.94l-8.7-15.161h17.4L243.087,61.94z
		 M253.513,45.778l8.509-14.83l8.509,14.83H253.513z M272.259,46.778h17.4l-8.7,15.161L272.259,46.778z M271.685,45.778
		l-8.326-14.511l25.847,14.511H271.685z M252.36,45.778h-17.52l25.847-14.511L252.36,45.778z M252.36,80.11l8.311,14.483
		L235.402,80.11H252.36z M271.685,80.11h16.958l-25.269,14.483L271.685,80.11z M281.535,62.944l8.487-14.79v29.58L281.535,62.944z"
		/>
	<g>
		<path fill="#C8C8C8" d="M257.909,101.141h1.67l2.475,7.277l2.458-7.277h1.659v8.607h-1.113v-5.08c0-0.176,0.004-0.467,0.012-0.873
			s0.012-0.842,0.012-1.307l-2.458,7.26h-1.155l-2.481-7.26v0.264c0,0.211,0.006,0.532,0.018,0.964s0.018,0.749,0.018,0.952v5.08
			h-1.113V101.141z"/>
	</g>
	<path fill="#DCDCDC" d="M387.249,58.172l-11.914-19.915c-0.047-0.078-0.114-0.142-0.194-0.186l-5.617-3.064
		c-0.075-0.041-0.159-0.062-0.244-0.062h-12.425v1.021h12.052l0.675,2.107l-12.727,4.837l-12.727-4.837l0.675-2.107h12.052v-1.021
		h-12.425c-0.085,0-0.17,0.021-0.244,0.062l-5.617,3.064c-0.08,0.044-0.147,0.108-0.194,0.186l-11.915,19.915
		c-0.047,0.079-0.072,0.17-0.072,0.262v7.66c0,0.09,0.023,0.178,0.068,0.255l12.085,20.937c0.043,0.074,0.105,0.13,0.174,0.173
		l-0.003,0.004l5.448,3.403c0.083,0.052,0.177,0.078,0.271,0.078h24.849c0.094,0,0.188-0.025,0.271-0.078l5.448-3.403l-0.003-0.004
		c0.069-0.043,0.131-0.099,0.174-0.173l12.085-20.937c0.045-0.078,0.068-0.166,0.068-0.255v-7.66
		C387.322,58.342,387.297,58.251,387.249,58.172z M386.3,58.576v6.198l-10.953-12.047l-5.194-16.213l4.376,2.387L386.3,58.576z
		 M338.918,53.631l16.893,9.403l-16.874,9.552l-8.132-10.031L338.918,53.631z M356.343,63.906v17.967l-13.038,3.477l-3.878-11.868
		L356.343,63.906z M357.365,63.906l16.916,9.575l-3.878,11.868l-13.038-3.477V63.906z M374.772,72.586l-16.874-9.552l16.893-9.403
		l8.114,8.924L374.772,72.586z M374.282,52.745l-16.917,9.416V43.808l12.528-4.761L374.282,52.745z M356.343,43.808v18.353
		l-16.917-9.416l4.389-13.698L356.343,43.808z M339.178,38.901l4.376-2.387l-5.194,16.213l-10.953,12.047v-6.198L339.178,38.901z
		 M327.525,66.162l2.584-2.843l8.246,10.172l3.961,12.121l-3.088,0.824L327.525,66.162z M340.25,87.221l2.385-0.636l0.873,2.67
		L340.25,87.221z M368.908,89.923H344.8l-1.177-3.602l13.231-3.528l13.231,3.528L368.908,89.923z M371.073,86.585l2.385,0.636
		l-3.257,2.035L371.073,86.585z M374.479,86.436l-3.088-0.824l3.96-12.119l8.248-10.173l2.584,2.842L374.479,86.436z"/>
	<g>
		<path fill="#C8C8C8" d="M354.651,101.141h1.166v7.582h4.318v1.025h-5.484V101.141z"/>
	</g>
	<path fill="#DCDCDC" d="M481.057,79.681V45.82c0-0.181-0.098-0.348-0.255-0.436l-28.897-16.189c-0.151-0.085-0.337-0.086-0.488,0
		l-28.897,16.189c-0.001,0-0.001,0.001-0.002,0.002c-0.057,0.032-0.099,0.084-0.14,0.137c-0.013,0.017-0.035,0.027-0.045,0.045
		c0,0,0,0,0,0c-0.045,0.077-0.067,0.164-0.068,0.25c0,0,0,0.001,0,0.001v33.861c0,0.087,0.022,0.173,0.067,0.25c0,0,0,0,0,0
		c0.003,0.005,0.01,0.008,0.013,0.013c0.044,0.07,0.101,0.129,0.17,0.169c0,0,0,0,0,0l28.635,16.424c0,0,0.001,0,0.001,0l0.261,0.15
		c0.077,0.044,0.163,0.066,0.249,0.066s0.172-0.022,0.249-0.066l28.897-16.574c0,0,0,0,0,0c0.07-0.04,0.126-0.1,0.17-0.169
		c0.003-0.005,0.01-0.008,0.013-0.013c0,0,0,0,0,0C481.035,79.854,481.057,79.768,481.057,79.681z M456.473,55.156l4.385,7.595
		l-2.406,4.168l-1.978,3.427h-9.625l-1.978-3.427l-2.406-4.168l4.385-7.595H456.473z M447.425,54.156l4.235-7.336l4.235,7.336
		H447.425z M461.435,61.751l-3.807-6.595h7.615L461.435,61.751z M447.425,71.346h8.47l-4.235,7.336L447.425,71.346z M441.885,61.751
		l-3.807-6.595h7.615L441.885,61.751z M444.003,67.419l1.69,2.927h-7.615l3.807-6.595L444.003,67.419z M459.317,67.419l2.118-3.668
		l3.807,6.595h-7.615L459.317,67.419z M457.05,54.156l-4.524-7.836h8.192l4.524,7.836H457.05z M446.27,54.156h-8.192l4.524-7.836
		h8.192L446.27,54.156z M436.779,54.406l-4.305,7.456l-8.851-15.541h17.824L436.779,54.406z M437.212,55.656l4.096,7.095
		l-4.192,7.261l-4.068-7.143L437.212,55.656z M436.391,70.761l-12.212,7.468l8.289-14.357L436.391,70.761z M436.886,71.631
		l4.3,7.551h-16.648L436.886,71.631z M437.875,71.346h8.395l4.524,7.836h-8.456L437.875,71.346z M451.16,80.182v14.492
		l-8.253-14.492H451.16z M452.16,80.182h7.735l-7.735,13.583V80.182z M452.526,79.182l4.524-7.836h7.877l-4.463,7.836H452.526z
		 M466.05,71.396l12.731,7.785h-17.165L466.05,71.396z M466.545,70.527l4.046-7.105l8.55,14.808L466.545,70.527z M465.944,69.561
		l-3.932-6.81l4.096-7.095l3.904,6.761L465.944,69.561z M466.541,54.406l-4.668-8.086h17.307l-8.594,15.09L466.541,54.406z
		 M461.296,45.32l-8.293-14.364l25.639,14.364H461.296z M460.141,45.32h-7.981V31.497L460.141,45.32z M451.16,45.32h-7.981
		l7.981-13.823V45.32z M442.024,45.32h-17.346l25.639-14.364L442.024,45.32z M431.895,62.865l-8.632,14.95V47.709L431.895,62.865z
		 M441.756,80.182l8.303,14.58l-25.419-14.58H441.756z M461.046,80.182h17.633l-26.188,15.021L461.046,80.182z M471.165,62.414
		l8.892-15.614v31.015L471.165,62.414z"/>
	<g>
		<path fill="#C8C8C8" d="M446.179,109.834h-1.401l3.046-4.416l-2.856-4.191h1.454l2.171,3.293l2.154-3.293h1.384l-2.854,4.191
			l2.994,4.416h-1.442l-2.293-3.539L446.179,109.834z"/>
		<path fill="#C8C8C8" d="M453.459,101.227h1.166v7.582h4.318v1.025h-5.484V101.227z"/>
	</g>
</g>
<g id="Layer_2">
</g>
</svg>
