<?xml version="1.0" encoding="utf-8"?>
<!-- Generator: Adobe Illustrator 17.0.0, SVG Export Plug-In . SVG Version: 6.00 Build 0)  -->
<!DOCTYPE svg PUBLIC "-//W3C//DTD SVG 1.1//EN" "http://www.w3.org/Graphics/SVG/1.1/DTD/svg11.dtd">
<svg version="1.1" id="Layer_1" xmlns="http://www.w3.org/2000/svg" xmlns:xlink="http://www.w3.org/1999/xlink" x="0px" y="0px"
	 width="650.5px" height="140px" viewBox="0 0 650.5 140" enable-background="new 0 0 650.5 140" xml:space="preserve">
<path fill="#DCDCDC" d="M98.931,88.515L69.452,36.838c-0.185-0.325-0.718-0.325-0.903,0L39.069,88.515
	c-0.092,0.162-0.091,0.359,0.002,0.519c0.093,0.161,0.264,0.259,0.45,0.259h58.96c0.185,0,0.357-0.099,0.45-0.259
	C99.023,88.874,99.023,88.676,98.931,88.515z M68.481,71.649L40.915,87.378l27.566-48.323V71.649z M69.521,39.059l27.564,48.319
	L69.521,71.65V39.059z M41.482,88.253L69,72.551l27.518,15.702H69H41.482z"/>
<g>
	<path fill="#C8C8C8" d="M61.055,109.748h-1.401l3.046-4.416l-2.856-4.191h1.454l2.171,3.293l2.154-3.293h1.384l-2.854,4.191
		l2.994,4.416h-1.442l-2.293-3.539L61.055,109.748z"/>
	<path fill="#C8C8C8" d="M69.096,106.971c0.026,0.488,0.137,0.885,0.333,1.189c0.373,0.57,1.029,0.855,1.97,0.855
		c0.421,0,0.805-0.062,1.151-0.188c0.67-0.242,1.005-0.676,1.005-1.301c0-0.469-0.142-0.803-0.426-1.002
		c-0.288-0.195-0.738-0.365-1.351-0.51l-1.129-0.264c-0.738-0.172-1.26-0.361-1.566-0.568c-0.53-0.359-0.795-0.896-0.795-1.611
		c0-0.773,0.26-1.408,0.781-1.904c0.521-0.496,1.258-0.744,2.212-0.744c0.878,0,1.624,0.218,2.238,0.653s0.921,1.132,0.921,2.089
		h-1.096c-0.056-0.461-0.176-0.814-0.359-1.061c-0.341-0.449-0.919-0.674-1.736-0.674c-0.659,0-1.133,0.145-1.421,0.434
		c-0.289,0.289-0.433,0.625-0.433,1.008c0,0.422,0.17,0.73,0.511,0.926c0.224,0.125,0.729,0.281,1.516,0.469l1.169,0.275
		c0.564,0.133,0.999,0.314,1.306,0.545c0.53,0.402,0.795,0.986,0.795,1.752c0,0.953-0.338,1.635-1.014,2.045S72.216,110,71.32,110
		c-1.044,0-1.861-0.273-2.451-0.82c-0.591-0.543-0.88-1.279-0.869-2.209H69.096z"/>
</g>
<rect x="61.58" y="-68.833" fill="#C8C8C8" width="60" height="60"/>
<rect x="203.833" y="-50.833" fill="#C8C8C8" width="12" height="12"/>
<rect x="240.333" y="-106.804" fill="#C8C8C8" width="30" height="30"/>
<rect x="158.833" y="-121.804" fill="#C8C8C8" width="45" height="45"/>
</svg>
